# xmcd
#
# Track frame offsets:
# 199
# 16572
# 29212
# 41485
# 52101
# 65094
# 77432
# 89227
# 105950
# 117709
#
# Disc length: 1782 seconds
#
#
# Revision: 0
# Processed by: cddbd v1.5PL3 Copyright (c) Steve Scherf et al.
# Submitted via: FreeRIP 2.52 
#
DISCID=8506f40a
DTITLE=Merle Haggard - Silver Wings
DYEAR=1900
DGENRE=Country
TTITLE0=Hungry Eyes
TTITLE1=Silver Wings
TTITLE2=Workin Man Bues
TTITLE3=Someday We'll Look Back
TTITLE4=Fightin' Side of Me
TTITLE5=Okie From Muskogee
TTITLE6=Turning off a Memory
TTITLE7=Daddy Frank
TTITLE8=Carolyn
TTITLE9=Its not love
EXTD=
EXTT0=
EXTT1=
EXTT2=
EXTT3=
EXTT4=
EXTT5=
EXTT6=
EXTT7=
EXTT8=
EXTT9=
PLAYORDER=
